<svg width="1100" height="1100" viewBox="0 0 1100 1100" fill="none" xmlns="http://www.w3.org/2000/svg">
<rect width="1100" height="1100" fill="white"/>
<path d="M552.426 1057.8C536.703 1057.75 521.047 1055.72 505.828 1051.77L502.828 1050.94L500.045 1049.55C399.44 999.104 314.565 932.478 247.777 851.517C192.491 784.105 149.387 707.567 120.404 625.342C85.7454 526.899 69.0711 423.025 71.1773 318.681C71.2198 316.49 71.2558 314.799 71.2558 313.634C71.2558 262.911 99.4108 218.406 142.984 200.25C176.332 186.355 479.122 61.9869 501 53.001C542.2 32.3567 586.155 49.5876 593.188 52.6009C608.966 59.0515 888.876 173.538 949.365 202.341C1011.7 232.027 1028.34 285.356 1028.34 312.186C1028.34 433.657 1007.3 547.18 965.809 649.604C932.301 732.509 884.809 809.047 825.404 875.882C710.787 1004.87 596.139 1050.59 595.033 1050.99C581.331 1055.71 566.915 1058.01 552.426 1057.8ZM525.465 991.013C535.405 993.242 558.289 996.584 573.204 991.143C592.153 984.233 688.11 934.473 777.78 833.564C901.673 694.141 964.536 518.875 964.628 312.634C964.407 308.456 961.44 278.655 921.974 259.863C862.659 231.617 571.716 112.65 568.784 111.451L567.98 111.111C561.883 108.556 542.478 103.174 529.103 110.183L526.425 111.432C523.182 112.764 201.767 244.775 167.488 259.058C143.508 269.049 134.965 293.801 134.965 313.634C134.965 315.083 134.927 317.192 134.874 319.916C132.135 461.034 164.79 808.281 525.465 991.013Z" fill="#3F3D56"/>
<path d="M514.322 81.9652C514.322 81.9652 189.986 215.175 155.236 229.654C120.485 244.133 103.11 278.884 103.11 313.634C103.11 348.384 77.0474 801.829 514.322 1021.07C514.322 1021.07 554.009 1032.05 584.119 1021.07C614.229 1010.09 996.483 824.753 996.483 312.186C996.483 312.186 996.483 260.061 935.67 231.102C874.856 202.143 580.836 81.9652 580.836 81.9652C580.836 81.9652 544.729 66.038 514.322 81.9652Z" fill="#6C63FF"/>
<path opacity="0.1" d="M549.073 186.216V896.842C549.073 896.842 221.841 739.325 224.736 325.218L549.073 186.216Z" fill="black"/>
<path d="M553.34 696.952L449.1 562.922L509.72 515.775L559.078 579.235L725.815 403.22L781.573 456.047L553.34 696.952Z" fill="white"/>
</svg>
